<?xml version="1.0" encoding="UTF-8" standalone="no"?>
<!-- Created with Inkscape (http://www.inkscape.org/) -->

<svg
   width="75.894409mm"
   height="75.894409mm"
   viewBox="0 0 75.894409 75.894409"
   version="1.1"
   id="svg5"
   xml:space="preserve"
   inkscape:version="1.2 (1:1.2.1+202207142221+cd75a1ee6d)"
   sodipodi:docname="shopcube.svg"
   xmlns:inkscape="http://www.inkscape.org/namespaces/inkscape"
   xmlns:sodipodi="http://sodipodi.sourceforge.net/DTD/sodipodi-0.dtd"
   xmlns="http://www.w3.org/2000/svg"
   xmlns:svg="http://www.w3.org/2000/svg"><sodipodi:namedview
     id="namedview7"
     pagecolor="#ffffff"
     bordercolor="#666666"
     borderopacity="1.0"
     inkscape:showpageshadow="2"
     inkscape:pageopacity="0.0"
     inkscape:pagecheckerboard="true"
     inkscape:deskcolor="#d1d1d1"
     inkscape:document-units="px"
     showgrid="false"
     inkscape:zoom="0.93717733"
     inkscape:cx="368.1267"
     inkscape:cy="767.73091"
     inkscape:window-width="1366"
     inkscape:window-height="703"
     inkscape:window-x="0"
     inkscape:window-y="0"
     inkscape:window-maximized="1"
     inkscape:current-layer="layer1" /><defs
     id="defs2"><inkscape:path-effect
       effect="bspline"
       id="path-effect581"
       is_visible="true"
       lpeversion="1"
       weight="33.333333"
       steps="2"
       helper_size="0"
       apply_no_weight="true"
       apply_with_weight="true"
       only_selected="false" /><inkscape:path-effect
       effect="bspline"
       id="path-effect481"
       is_visible="true"
       lpeversion="1"
       weight="33.333333"
       steps="2"
       helper_size="0"
       apply_no_weight="true"
       apply_with_weight="true"
       only_selected="false" /></defs><g
     inkscape:label="Layer 1"
     inkscape:groupmode="layer"
     id="layer1"
     transform="translate(-26.935431,-148.43969)"><circle
       style="fill:#67d98f;fill-opacity:0.992204;stroke:none;stroke-width:20;stroke-linecap:round;paint-order:stroke fill markers;stop-color:#000000"
       id="path635"
       cx="64.882637"
       cy="186.3869"
       r="37.947205"
       inkscape:export-filename="shopcube2.svg"
       inkscape:export-xdpi="100.982"
       inkscape:export-ydpi="100.982" /><g
       id="g5118"><path
         style="fill:#ffffff;stroke:none;stroke-width:0.167354px;stroke-linecap:butt;stroke-linejoin:miter;stroke-opacity:1"
         d="m 44.3138,175.89572 c 1.828406,1.57442 5.031313,4.82703 7.220778,7.97527 2.189465,3.14824 3.365526,6.19196 4.051473,8.91712 0.685948,2.72516 0.881815,5.13164 0.580134,6.93058 -0.301681,1.79893 -1.100847,2.99038 -1.041116,3.51695 0.05973,0.52656 0.978174,0.38828 2.805941,0.013 1.827767,-0.37525 4.564749,-0.98744 7.980199,-1.93144 3.41545,-0.944 7.509166,-2.21975 10.387396,-3.2023 2.878231,-0.98255 4.54085,-1.67185 5.763406,-2.22611 1.222555,-0.55425 2.005007,-0.97343 2.566701,-1.29743 0.561693,-0.32401 0.902614,-0.55283 1.151245,-0.79152 0.248631,-0.23868 0.405017,-0.48728 0.501173,-0.83137 0.09616,-0.34409 0.132063,-0.78375 -0.09357,-1.15446 -0.225632,-0.37071 -0.712993,-0.67241 -3.25989,-1.91508 -2.546897,-1.24266 -7.153117,-3.42615 -11.756206,-5.51284 -4.603089,-2.08668 -9.202756,-4.07642 -12.920767,-5.52387 -3.71801,-1.44746 -6.554155,-2.35253 -9.203011,-3.25353 -2.648857,-0.901 -5.110221,-1.79787 -6.324107,-1.97704 -1.213886,-0.17917 -1.179953,0.35929 -0.936,0.57644 0.243953,0.21715 0.697812,0.11319 2.526219,1.68761 z"
         id="path479"
         inkscape:path-effect="#path-effect481"
         inkscape:original-d="m 42.939131,174.21736 c 3.203077,3.25278 6.405986,6.50539 9.608727,9.75784 1.176275,3.044 2.352338,6.08771 3.528253,9.13132 0.196043,2.40674 0.391909,4.81322 0.58761,7.21958 -0.799029,1.19165 -1.598191,2.3831 -2.397543,3.57441 0.918651,-0.13812 1.837094,-0.2764 2.755391,-0.41486 2.73725,-0.61205 5.474232,-1.22424 8.211096,-1.8366 4.094054,-1.27564 8.187772,-2.55138 12.281408,-3.82732 1.662846,-0.68916 3.325466,-1.37846 4.987947,-2.06794 0.782653,-0.41903 1.565104,-0.83821 2.347403,-1.25756 0.341111,-0.22867 0.682033,-0.45749 1.022802,-0.68649 0.156561,-0.24844 0.312945,-0.49704 0.469164,-0.74581 0.03605,-0.43952 0.07198,-0.87918 0.107725,-1.31902 -0.48721,-0.30155 -0.974572,-0.60325 -1.462124,-0.90513 -4.606248,-2.18342 -9.21247,-4.36691 -13.818959,-6.55062 -4.599689,-1.98965 -9.199358,-3.97938 -13.799286,-5.96933 -2.836087,-0.90495 -5.672234,-1.81002 -8.508603,-2.71528 -2.461345,-0.89675 -4.922711,-1.79361 -7.384392,-2.6907 0.0341,0.53864 0.06804,1.0771 0.101801,1.6154 0.454027,-0.1038 0.907887,-0.20776 1.36158,-0.31189 z"
         sodipodi:nodetypes="cccccccccccccccccccc" /><path
         style="fill:#ffffff;stroke:none;stroke-width:0.167354px;stroke-linecap:butt;stroke-linejoin:miter;stroke-opacity:1"
         d="m 45.253761,204.99379 c -0.112693,0.0518 -0.338158,0.1553 -0.425516,0.37432 -0.08736,0.21902 -0.03657,0.55327 0.222388,0.93008 0.25896,0.37682 0.725925,0.79619 1.070594,1.10618 0.344668,0.30998 0.567025,0.51057 0.768811,0.62152 0.201785,0.11095 0.382973,0.13238 1.41224,0.14857 1.029267,0.0162 2.906539,0.0271 5.022575,0.0253 2.116036,-0.002 4.470707,-0.0166 6.897551,-0.0333 2.426845,-0.0167 4.925705,-0.0355 6.184796,-0.1714 1.259092,-0.13589 1.278532,-0.38906 1.417498,-0.966 0.138966,-0.57694 0.397467,-1.47757 0.615557,-2.14252 0.21809,-0.66496 0.395757,-1.09418 0.61827,-1.44966 0.222512,-0.35548 0.489831,-0.63711 0.578594,-0.84825 0.08876,-0.21114 -0.0011,-0.35196 -0.224009,-0.33372 -0.222864,0.0182 -0.578614,0.19578 -1.003966,0.4113 -0.425351,0.21553 -0.920281,0.46903 -2.489749,0.75839 -1.569469,0.28935 -4.213454,0.61452 -6.63995,0.83039 -2.426496,0.21586 -4.635383,0.3224 -6.715099,0.40417 -2.079716,0.0818 -4.030145,0.13878 -5.208239,0.1818 -1.178094,0.043 -1.583795,0.0721 -1.786723,0.0866 -0.202928,0.0145 -0.20293,0.0145 -0.315623,0.0663 z"
         id="path579"
         inkscape:path-effect="#path-effect581"
         inkscape:original-d="m 45.366454,204.94204 c -0.225294,0.10371 -0.450756,0.20726 -0.676384,0.31063 0.05096,0.33444 0.101741,0.66869 0.152361,1.00279 0.467151,0.41956 0.934117,0.83893 1.400926,1.25814 0.222532,0.20076 0.444889,0.40135 0.667082,0.60178 0.181367,0.0216 0.362559,0.043 0.543588,0.0643 1.877517,0.0111 3.754789,0.0221 5.631931,0.0329 2.354932,-0.0146 4.709603,-0.0292 7.064154,-0.0441 2.499138,-0.0186 4.997998,-0.0374 7.496751,-0.0563 0.01961,-0.25301 0.03903,-0.50618 0.05832,-0.75951 0.258681,-0.9005 0.517179,-1.80113 0.775519,-2.70194 0.177845,-0.42908 0.355513,-0.8583 0.533017,-1.2877 0.267492,-0.28147 0.534807,-0.56311 0.801958,-0.84491 -0.08975,-0.14067 -0.179661,-0.28149 -0.269738,-0.42248 -0.355596,0.1777 -0.711343,0.35524 -1.067268,0.53261 -0.494775,0.25368 -0.989702,0.50719 -1.4848,0.76052 -2.643921,0.32536 -5.287907,0.65053 -7.932113,0.97554 -2.2088,0.10671 -4.417688,0.21324 -6.626781,0.31961 -1.950341,0.0572 -3.900771,0.11418 -5.851406,0.17102 -0.405545,0.0292 -0.811242,0.0583 -1.217115,0.0871 z" /></g></g></svg>
