<?xml version="1.0" encoding="UTF-8" standalone="no"?>
<!-- Created with Inkscape (http://www.inkscape.org/) -->

<svg
   width="63.250607mm"
   height="63.250622mm"
   viewBox="0 0 63.250607 63.250622"
   version="1.1"
   id="svg5"
   xmlns:inkscape="http://www.inkscape.org/namespaces/inkscape"
   xmlns:sodipodi="http://sodipodi.sourceforge.net/DTD/sodipodi-0.dtd"
   xmlns="http://www.w3.org/2000/svg"
   xmlns:svg="http://www.w3.org/2000/svg">
  <sodipodi:namedview
     id="namedview7"
     pagecolor="#ffffff"
     bordercolor="#666666"
     borderopacity="1.0"
     inkscape:showpageshadow="2"
     inkscape:pageopacity="0.0"
     inkscape:pagecheckerboard="0"
     inkscape:deskcolor="#d1d1d1"
     inkscape:document-units="mm"
     showgrid="false" />
  <defs
     id="defs2" />
  <g
     inkscape:label="Layer 1"
     inkscape:groupmode="layer"
     id="layer1"
     transform="translate(-49.731366,-30.779145)">
    <g
       id="g2278">
      <g
         id="g871">
        <path
           id="path752"
           style="fill:#b0c4de;stroke:none;stroke-width:0.264583px;stroke-linecap:butt;stroke-linejoin:miter;stroke-opacity:1"
           d="m 77.838939,63.802434 c 0.0022,0.978523 -0.05553,2.050766 -0.09432,3.300498 -0.127538,4.108746 -0.03965,10.117664 -5.81498,12.132715 -0.749467,0.261489 -1.599186,0.45427 -2.513042,0.580799 a 21.127497,21.127497 0 0 0 19.242983,2.400362 c 0.561784,-2.168822 0.771714,-4.322161 0.708998,-6.37523 -0.143539,-4.698891 -1.714882,-8.871407 -3.288043,-11.0233 -1.57316,-2.151892 -3.148249,-2.282988 -6.559661,-1.462052 -0.520983,0.125373 -1.088767,0.276033 -1.681936,0.446208 z"
           inkscape:transform-center-x="1.9587351"
           inkscape:transform-center-y="10.799" />
        <path
           id="path817"
           style="fill:#b0c4de;stroke:none;stroke-width:0.264583px;stroke-linecap:butt;stroke-linejoin:miter;stroke-opacity:1"
           d="m 84.874408,61.006481 c -0.0022,-0.978523 0.05553,-2.050766 0.09432,-3.300498 0.127538,-4.108746 0.03965,-10.117664 5.81498,-12.132715 0.749467,-0.261489 1.599186,-0.45427 2.513042,-0.580799 A 21.127497,21.127497 0 0 0 74.053767,42.592107 c -0.561784,2.168822 -0.771714,4.322161 -0.708998,6.37523 0.143539,4.698891 1.714882,8.871407 3.288043,11.0233 1.57316,2.151892 3.148249,2.282988 6.559661,1.462052 0.520983,-0.125373 1.088767,-0.276033 1.681935,-0.446208 z"
           inkscape:transform-center-x="-1.9587347"
           inkscape:transform-center-y="-10.799" />
        <path
           id="path819"
           style="fill:#b0c4de;stroke:none;stroke-width:0.264583px;stroke-linecap:butt;stroke-linejoin:miter;stroke-opacity:1"
           d="m 82.75465,65.922192 c 0.978523,-0.0022 2.050766,0.05553 3.300498,0.09432 4.108746,0.127538 10.117664,0.03965 12.132715,5.81498 0.261489,0.749467 0.45427,1.599186 0.580799,2.513042 a 21.127497,21.127497 0 0 0 2.400358,-19.242983 c -2.168818,-0.561784 -4.322157,-0.771714 -6.375226,-0.708998 -4.698891,0.143539 -8.871407,1.714882 -11.0233,3.288043 -2.151892,1.57316 -2.282988,3.148249 -1.462052,6.559661 0.125373,0.520983 0.276033,1.088767 0.446208,1.681935 z"
           inkscape:transform-center-x="-10.798998"
           inkscape:transform-center-y="1.958735" />
        <path
           id="path821"
           style="fill:#b0c4de;stroke:none;stroke-width:0.264583px;stroke-linecap:butt;stroke-linejoin:miter;stroke-opacity:1"
           d="m 79.958697,58.886723 c -0.978523,0.0022 -2.050766,-0.05553 -3.300498,-0.09432 -4.108746,-0.127538 -10.117664,-0.03965 -12.132715,-5.81498 -0.261489,-0.749467 -0.45427,-1.599186 -0.580799,-2.513042 a 21.127497,21.127497 0 0 0 -2.400362,19.242983 c 2.168822,0.561784 4.322161,0.771714 6.37523,0.708998 4.698891,-0.143539 8.871407,-1.714882 11.0233,-3.288043 2.151892,-1.57316 2.282988,-3.148249 1.462052,-6.559661 -0.125373,-0.520983 -0.276033,-1.088767 -0.446208,-1.681935 z"
           inkscape:transform-center-x="10.799"
           inkscape:transform-center-y="-1.958735" />
      </g>
      <g
         id="g865">
        <path
           id="path823"
           style="fill:#4682b4;stroke:none;stroke-width:0.264583px;stroke-linecap:butt;stroke-linejoin:miter;stroke-opacity:1"
           d="m 79.095875,59.36841 c -0.944611,0.255385 -1.99526,0.477139 -3.212448,0.763125 -4.001753,0.94023 -9.783175,2.580345 -13.22433,-2.476661 -0.446555,-0.656252 -0.852691,-1.427122 -1.211432,-2.277091 a 21.127497,21.127497 0 0 0 2.661879,19.208554 c 2.240321,-0.01869 4.374621,-0.373239 6.341501,-0.965192 4.50163,-1.35481 8.125277,-3.952538 9.796682,-6.029045 1.671405,-2.076507 1.390371,-3.631856 -0.285531,-6.714553 -0.255941,-0.470782 -0.548421,-0.980226 -0.866321,-1.509137 z"
           inkscape:transform-center-x="10.549792"
           inkscape:transform-center-y="2.5776026" />
        <path
           id="path825"
           style="fill:#4682b4;stroke:none;stroke-width:0.264583px;stroke-linecap:butt;stroke-linejoin:miter;stroke-opacity:1"
           d="m 83.617472,65.440505 c 0.944611,-0.255386 1.99526,-0.47714 3.212448,-0.763126 4.001753,-0.940229 9.783175,-2.580345 13.22433,2.476662 0.44656,0.656251 0.85269,1.427121 1.21143,2.27709 A 21.127497,21.127497 0 0 0 98.603803,50.222578 c -2.240321,0.01869 -4.374621,0.373239 -6.341501,0.965191 -4.50163,1.354811 -8.125277,3.952538 -9.796682,6.029046 -1.671405,2.076506 -1.390371,3.631855 0.285531,6.714553 0.255942,0.470782 0.548421,0.980225 0.866321,1.509137 z"
           inkscape:transform-center-x="-10.549791"
           inkscape:transform-center-y="-2.5776029" />
        <path
           id="path827"
           style="fill:#4682b4;stroke:none;stroke-width:0.264583px;stroke-linecap:butt;stroke-linejoin:miter;stroke-opacity:1"
           d="m 78.320626,64.665255 c 0.255385,0.944612 0.477139,1.995261 0.763125,3.212449 0.94023,4.001753 2.580346,9.783175 -2.476661,13.22433 -0.656251,0.446555 -1.427122,0.852691 -2.277091,1.211432 a 21.127497,21.127497 0 0 0 19.208553,-2.661883 c -0.01869,-2.240318 -0.373238,-4.374617 -0.96519,-6.341498 -1.354811,-4.501629 -3.952538,-8.125277 -6.029046,-9.796682 -2.076506,-1.671404 -3.631856,-1.39037 -6.714553,0.285532 -0.470782,0.255941 -0.980225,0.548421 -1.509137,0.86632 z"
           inkscape:transform-center-x="-2.5776017"
           inkscape:transform-center-y="10.54979" />
        <path
           id="path829"
           style="fill:#4682b4;stroke:none;stroke-width:0.264583px;stroke-linecap:butt;stroke-linejoin:miter;stroke-opacity:1"
           d="m 84.392721,60.143659 c -0.255385,-0.944611 -0.477139,-1.99526 -0.763125,-3.212448 -0.94023,-4.001753 -2.580346,-9.783175 2.476661,-13.22433 0.656251,-0.446556 1.427122,-0.852691 2.277091,-1.211432 a 21.127497,21.127497 0 0 0 -19.208554,2.661878 c 0.01869,2.240322 0.373239,4.374622 0.965191,6.341502 1.354811,4.501629 3.952538,8.125277 6.029046,9.796682 2.076506,1.671404 3.631856,1.39037 6.714553,-0.285531 0.470782,-0.255942 0.980225,-0.548421 1.509137,-0.866321 z"
           inkscape:transform-center-x="2.5776025"
           inkscape:transform-center-y="-10.549792" />
      </g>
      <g
         id="g877"
         style="fill:#6495ed">
        <path
           id="path839"
           style="fill:#6495ed;stroke:none;stroke-width:0.264583px;stroke-linecap:butt;stroke-linejoin:miter;stroke-opacity:1"
           d="m 78.387123,60.056999 c -0.846326,0.491166 -1.803781,0.977292 -2.905475,1.568565 -3.622047,1.943922 -8.781979,5.024493 -13.414729,1.030437 -0.60119,-0.518314 -1.193003,-1.157801 -1.759508,-1.885959 a 21.127497,21.127497 0 0 0 7.542717,17.865093 c 2.159147,-0.597891 4.128958,-1.492756 5.87561,-2.573605 3.99759,-2.473753 6.825422,-5.920835 7.902436,-8.359178 1.077014,-2.438343 0.403002,-3.867958 -2.013656,-6.411859 -0.369067,-0.388498 -0.783435,-0.804884 -1.227395,-1.233494 z"
           inkscape:transform-center-x="10.17188"
           inkscape:transform-center-y="6.9416096" />
        <path
           id="path841"
           style="fill:#6495ed;stroke:none;stroke-width:0.264583px;stroke-linecap:butt;stroke-linejoin:miter;stroke-opacity:1"
           d="m 84.326224,64.751917 c 0.846326,-0.491168 1.80378,-0.977294 2.905475,-1.568566 3.622047,-1.943922 8.781979,-5.024494 13.414731,-1.030437 0.60119,0.518312 1.193,1.157801 1.7595,1.885959 A 21.127497,21.127497 0 0 0 94.863219,46.17378 c -2.159147,0.597891 -4.128958,1.492756 -5.87561,2.573604 -3.99759,2.473755 -6.825423,5.920835 -7.902436,8.359179 -1.077014,2.438343 -0.403002,3.867957 2.013656,6.41186 0.369068,0.388497 0.783435,0.804882 1.227395,1.233494 z"
           inkscape:transform-center-x="-10.171877"
           inkscape:transform-center-y="-6.9416091" />
        <path
           id="path843"
           style="fill:#6495ed;stroke:none;stroke-width:0.264583px;stroke-linecap:butt;stroke-linejoin:miter;stroke-opacity:1"
           d="m 79.009214,65.374007 c 0.491167,0.846327 0.977293,1.803782 1.568565,2.905476 1.943923,3.622048 5.024495,8.781979 1.030438,13.414729 -0.518313,0.60119 -1.157801,1.193003 -1.885959,1.759508 a 21.127497,21.127497 0 0 0 17.865091,-7.542721 c -0.59789,-2.159143 -1.492754,-4.128954 -2.573602,-5.875607 -2.473755,-3.997589 -5.920835,-6.825423 -8.359179,-7.902436 -2.438342,-1.077013 -3.867958,-0.403001 -6.411859,2.013657 -0.388498,0.369067 -0.804883,0.783435 -1.233495,1.227394 z"
           inkscape:transform-center-x="-6.9416075"
           inkscape:transform-center-y="10.171879" />
        <path
           id="path845"
           style="fill:#6495ed;stroke:none;stroke-width:0.264583px;stroke-linecap:butt;stroke-linejoin:miter;stroke-opacity:1"
           d="m 83.704133,59.434907 c -0.491167,-0.846326 -0.977293,-1.80378 -1.568565,-2.905475 -1.943923,-3.622047 -5.024495,-8.781979 -1.030438,-13.414729 0.518313,-0.60119 1.157801,-1.193003 1.885959,-1.759508 a 21.127497,21.127497 0 0 0 -17.865093,7.542716 c 0.597891,2.159148 1.492756,4.128959 2.573604,5.875611 2.473754,3.997589 5.920835,6.825423 8.359179,7.902436 2.438342,1.077013 3.867958,0.403001 6.411859,-2.013656 0.388498,-0.369068 0.804883,-0.783435 1.233495,-1.227395 z"
           inkscape:transform-center-x="6.941609"
           inkscape:transform-center-y="-10.17188" />
      </g>
      <circle
         style="fill:#ffc55b;fill-opacity:1;stroke-width:0.337515;stroke-linecap:round;paint-order:stroke fill markers;stop-color:#000000"
         id="circle509"
         cx="81.356674"
         cy="62.404457"
         r="2.1603587" />
      <path
         id="circle762"
         style="fill:#ffc55b;fill-opacity:1;stroke-width:2.13868;stroke-linecap:round;paint-order:stroke fill markers;stop-color:#000000"
         d="M 81.356675,30.779146 A 31.625468,31.625468 0 0 0 49.731368,62.404457 31.625468,31.625468 0 0 0 81.356675,94.029768 31.625468,31.625468 0 0 0 112.98198,62.404457 31.625468,31.625468 0 0 0 81.356675,30.779146 Z m 0,7.684323 A 23.940667,23.940667 0 0 1 105.29689,62.404457 23.940667,23.940667 0 0 1 81.356675,86.345445 23.940667,23.940667 0 0 1 57.415689,62.404457 23.940667,23.940667 0 0 1 81.356675,38.463469 Z" />
    </g>
  </g>
</svg>
