<?xml version="1.0" encoding="UTF-8" standalone="no"?>
<svg
   xmlns:dc="http://purl.org/dc/elements/1.1/"
   xmlns:cc="http://creativecommons.org/ns#"
   xmlns:rdf="http://www.w3.org/1999/02/22-rdf-syntax-ns#"
   xmlns:svg="http://www.w3.org/2000/svg"
   xmlns="http://www.w3.org/2000/svg"
   xmlns:sodipodi="http://sodipodi.sourceforge.net/DTD/sodipodi-0.dtd"
   xmlns:inkscape="http://www.inkscape.org/namespaces/inkscape"
   width="500"
   height="500"
   viewBox="0 0 132.29166 132.29167"
   version="1.1"
   id="svg1249"
   inkscape:version="1.0.1 (3bc2e813f5, 2020-09-07)"
   sodipodi:docname="shopyo.svg">
  <defs
     id="defs1243" />
  <sodipodi:namedview
     id="base"
     pagecolor="#ffffff"
     bordercolor="#666666"
     borderopacity="1.0"
     inkscape:pageopacity="0.0"
     inkscape:pageshadow="2"
     inkscape:zoom="0.35"
     inkscape:cx="572.16075"
     inkscape:cy="463.68903"
     inkscape:document-units="mm"
     inkscape:current-layer="layer1"
     inkscape:document-rotation="0"
     showgrid="false"
     inkscape:pagecheckerboard="true"
     units="px"
     inkscape:snap-page="true"
     inkscape:window-width="1366"
     inkscape:window-height="749"
     inkscape:window-x="-4"
     inkscape:window-y="-4"
     inkscape:window-maximized="1"
     inkscape:snap-global="true" />
  <metadata
     id="metadata1246">
    <rdf:RDF>
      <cc:Work
         rdf:about="">
        <dc:format>image/svg+xml</dc:format>
        <dc:type
           rdf:resource="http://purl.org/dc/dcmitype/StillImage" />
        <dc:title></dc:title>
      </cc:Work>
    </rdf:RDF>
  </metadata>
  <g
     inkscape:label="Layer 1"
     inkscape:groupmode="layer"
     id="layer1">
    <rect
       style="fill:#ffffff;fill-opacity:1;stroke-width:1.112;stroke-linecap:round;stroke-linejoin:round;paint-order:stroke fill markers"
       id="rect1121"
       width="132.29167"
       height="132.29167"
       x="0"
       y="0"
       inkscape:export-filename="C:\Users\j\Desktop\entry\assets\SHOPYOV2\profile.png"
       inkscape:export-xdpi="96"
       inkscape:export-ydpi="96" />
    <g
       id="g2735"
       transform="translate(-165.93145,-97.139874)">
      <path
         id="rect92084"
         style="fill:#d5ab77;fill-opacity:1;stroke:none;stroke-width:0.531865;stroke-linecap:round;stroke-linejoin:round;stroke-miterlimit:4;stroke-dasharray:none;stroke-dashoffset:0;stroke-opacity:1;paint-order:stroke fill markers"
         d="m 188.17528,147.83132 v 2.93244 h 84.87134 v 25.04469 h -84.87134 v 2.93165 h 87.7639 v -2.73381 h 0.0401 v -25.90488 h -0.0401 v -2.27009 z m 0,3.02629 v 24.8789 h 2.93246 v -24.8789 z" />
      <path
         id="path92100"
         style="fill:#4d4d4d;fill-opacity:1;stroke:none;stroke-width:0.531865;stroke-linecap:round;stroke-linejoin:round;stroke-miterlimit:4;stroke-dasharray:none;stroke-dashoffset:0;stroke-opacity:1;paint-order:stroke fill markers"
         d="m 275.97922,147.83132 v 2.93244 H 191.1079 v 25.04469 h 84.87132 v 2.93165 h -87.76389 v -2.73381 h -0.04 v -25.90488 h 0.04 v -2.27009 z m 0,3.02629 v 24.8789 h -2.93246 v -24.8789 z" />
      <g
         id="g2695"
         transform="translate(6.0475998,-17.248631)">
        <path
           d="m 199.81418,182.32509 q 0,2.70566 -2.37723,3.52675 -0.82891,0.28933 -1.78293,0.28933 -2.00187,0 -3.71442,-1.21208 l 1.18862,-2.23647 q 1.25118,1.12606 2.44762,1.12606 0.53955,0 0.91491,-0.25024 0.4379,-0.28151 0.4379,-0.79763 0,-0.46918 -0.48482,-0.78198 -0.35971,-0.23459 -1.21207,-0.477 -1.03223,-0.30498 -1.2981,-0.42228 -0.42227,-0.17985 -0.71943,-0.42227 -0.85236,-0.70378 -0.85236,-2.12699 0,-1.48577 0.88364,-2.46325 1.03223,-1.14953 2.75259,-1.14953 1.72818,0 3.38599,0.86801 l -1.11041,2.15828 q -0.90711,-0.70379 -1.82985,-0.70379 -0.44573,0 -0.79763,0.22678 -0.3988,0.25805 -0.3988,0.68814 0,0.42227 0.52393,0.72725 0.23458,0.14073 1.40757,0.48482 1.47012,0.43009 2.09571,1.2199 0.53957,0.67251 0.53957,1.72819 z"
           style="font-style:normal;font-variant:normal;font-weight:bold;font-stretch:normal;font-size:10.5833px;line-height:1.25;font-family:Aharoni;-inkscape-font-specification:'Aharoni, Bold';font-variant-ligatures:normal;font-variant-caps:normal;font-variant-numeric:normal;font-variant-east-asian:normal;letter-spacing:0px;word-spacing:0px;fill:#4d4d4d;fill-opacity:1;stroke:none;stroke-width:0.400376"
           id="path92021" />
        <path
           d="m 212.46029,185.87138 h -2.77604 v -4.44168 h -4.00375 v 4.44168 h -2.77605 V 175.1973 h 2.77605 v 4.12105 h 4.00375 v -4.12105 h 2.77604 z"
           style="font-style:normal;font-variant:normal;font-weight:bold;font-stretch:normal;font-size:10.5833px;line-height:1.25;font-family:Aharoni;-inkscape-font-specification:'Aharoni, Bold';font-variant-ligatures:normal;font-variant-caps:normal;font-variant-numeric:normal;font-variant-east-asian:normal;letter-spacing:0px;word-spacing:0px;fill:#4d4d4d;fill-opacity:1;stroke:none;stroke-width:0.400376"
           id="path92023" />
        <path
           d="m 235.3558,178.71622 q 0,1.44667 -0.68034,2.39287 -0.88364,1.22772 -2.93244,1.22772 h -1.736 v 3.53457 h -2.77605 V 175.1973 h 4.41821 q 1.88459,0 2.86206,1.10259 0.84456,0.94619 0.84456,2.41633 z m -2.88553,0.0313 q 0,-0.59431 -0.35189,-0.9462 -0.34408,-0.35971 -1.18079,-0.35971 h -0.93057 v 2.65092 h 0.92274 q 0.89929,0 1.23553,-0.39099 0.30498,-0.35189 0.30498,-0.95402 z"
           style="font-style:normal;font-variant:normal;font-weight:bold;font-stretch:normal;font-size:10.5833px;line-height:1.25;font-family:Aharoni;-inkscape-font-specification:'Aharoni, Bold';font-variant-ligatures:normal;font-variant-caps:normal;font-variant-numeric:normal;font-variant-east-asian:normal;letter-spacing:0px;word-spacing:0px;fill:#4d4d4d;fill-opacity:1;stroke:none;stroke-width:0.400376"
           id="path92027" />
        <path
           d="m 248.4164,175.1973 -3.99594,5.54425 v 5.12983 h -2.77603 v -5.12983 l -3.86301,-5.54425 h 3.31561 l 2.01752,2.90897 1.93932,-2.90897 z"
           style="font-style:normal;font-variant:normal;font-weight:bold;font-stretch:normal;font-size:10.5833px;line-height:1.25;font-family:Aharoni;-inkscape-font-specification:'Aharoni, Bold';font-variant-ligatures:normal;font-variant-caps:normal;font-variant-numeric:normal;font-variant-east-asian:normal;letter-spacing:0px;word-spacing:0px;fill:#4d4d4d;fill-opacity:1;stroke:none;stroke-width:0.400376"
           id="path92029" />
        <g
           id="g92050"
           transform="matrix(0.39046951,0,0,0.39046951,116.35014,56.560272)">
          <path
             style="fill:#ffffff;stroke:none;stroke-width:0.264583px;stroke-linecap:butt;stroke-linejoin:miter;stroke-opacity:1"
             d="m 264.13775,302.5 -12.99038,7.49998 v 15.00003 l 12.99038,7.49998 12.99038,-7.49998 v -15.00003 z"
             id="path92040" />
          <path
             style="fill:#c2a98a;fill-opacity:1;stroke:none;stroke-width:0.264583px;stroke-linecap:butt;stroke-linejoin:miter;stroke-opacity:1"
             d="m 251.14737,310 c 6.1786,3.56503 9.08334,4.72905 12.12435,8 l 0.86603,14.5 -12.99038,-7.5 z"
             id="path92042"
             sodipodi:nodetypes="ccccc" />
          <path
             style="fill:#c2a98a;fill-opacity:1;stroke:none;stroke-width:0.264583px;stroke-linecap:butt;stroke-linejoin:miter;stroke-opacity:1"
             d="m 265.00377,318 c 3.22115,-3.99586 8.06761,-5.3581 12.12434,-8.00001 l 2e-5,15.00001 -12.99038,7.5 z"
             id="path92044"
             sodipodi:nodetypes="ccccc" />
          <path
             style="fill:#f6dcbd;fill-opacity:1;stroke:none;stroke-width:0.264583px;stroke-linecap:butt;stroke-linejoin:miter;stroke-opacity:1"
             d="M 277.12811,309.99999 264.13775,302.5 251.14737,310 c 5.72315,2.95354 5.48587,1.90275 12.99038,6.5 3.1262,-2.14301 8.5505,-4.33118 12.99036,-6.50001 z"
             id="path92046"
             sodipodi:nodetypes="ccccc" />
          <path
             id="path92048"
             style="fill:#d8b384;fill-opacity:1;stroke:none;stroke-width:0.264583px;stroke-linecap:butt;stroke-linejoin:miter;stroke-opacity:1"
             d="m 259.8078,304.99977 -4.33048,2.5001 12.12431,7.0001 0.004,-0.002 c 1.47027,-0.7516 3.09531,-1.50638 4.73718,-2.26136 z" />
        </g>
        <g
           id="g92062"
           transform="matrix(0.40147703,0,0,0.40147703,148.85916,53.065385)">
          <path
             style="fill:#ffffff;stroke:none;stroke-width:0.264583px;stroke-linecap:butt;stroke-linejoin:miter;stroke-opacity:1"
             d="m 264.13775,302.5 -12.99038,7.49998 v 15.00003 l 12.99038,7.49998 12.99038,-7.49998 v -15.00003 z"
             id="path92052" />
          <path
             style="fill:#c2a98a;fill-opacity:1;stroke:none;stroke-width:0.264583px;stroke-linecap:butt;stroke-linejoin:miter;stroke-opacity:1"
             d="m 251.14737,310 c 6.1786,3.56503 9.08334,4.72905 12.12435,8 l 0.86603,14.5 -12.99038,-7.5 z"
             id="path92054"
             sodipodi:nodetypes="ccccc" />
          <path
             style="fill:#c2a98a;fill-opacity:1;stroke:none;stroke-width:0.264583px;stroke-linecap:butt;stroke-linejoin:miter;stroke-opacity:1"
             d="m 265.00377,318 c 3.22115,-3.99586 8.06761,-5.3581 12.12434,-8.00001 l 2e-5,15.00001 -12.99038,7.5 z"
             id="path92056"
             sodipodi:nodetypes="ccccc" />
          <path
             style="fill:#f6dcbd;fill-opacity:1;stroke:none;stroke-width:0.264583px;stroke-linecap:butt;stroke-linejoin:miter;stroke-opacity:1"
             d="M 277.12811,309.99999 264.13775,302.5 251.14737,310 c 5.72315,2.95354 5.48587,1.90275 12.99038,6.5 3.1262,-2.14301 8.5505,-4.33118 12.99036,-6.50001 z"
             id="path92058"
             sodipodi:nodetypes="ccccc" />
          <path
             id="path92060"
             style="fill:#d8b384;fill-opacity:1;stroke:none;stroke-width:0.264583px;stroke-linecap:butt;stroke-linejoin:miter;stroke-opacity:1"
             d="m 259.8078,304.99977 -4.33048,2.5001 12.12431,7.0001 0.004,-0.002 c 1.47027,-0.7516 3.09531,-1.50638 4.73718,-2.26136 z" />
        </g>
        <g
           id="g2572">
          <path
             d="m 199.81419,182.74041 q 0,2.70566 -2.37723,3.52675 -0.82891,0.28933 -1.78293,0.28933 -2.00187,0 -3.71442,-1.21208 l 1.18862,-2.23647 q 1.25118,1.12606 2.44762,1.12606 0.53955,0 0.91491,-0.25024 0.4379,-0.28151 0.4379,-0.79763 0,-0.46918 -0.48482,-0.78198 -0.35971,-0.23459 -1.21208,-0.477 -1.03223,-0.30498 -1.2981,-0.42228 -0.42227,-0.17985 -0.71942,-0.42227 -0.85237,-0.70378 -0.85237,-2.12699 0,-1.48577 0.88365,-2.46325 1.03223,-1.14953 2.75259,-1.14953 1.72818,0 3.38599,0.86801 l -1.11041,2.15828 q -0.90711,-0.70379 -1.82985,-0.70379 -0.44573,0 -0.79763,0.22678 -0.3988,0.25805 -0.3988,0.68814 0,0.42227 0.52393,0.72725 0.23458,0.14073 1.40757,0.48482 1.47012,0.43009 2.09571,1.2199 0.53957,0.67251 0.53957,1.72819 z"
             style="font-style:normal;font-variant:normal;font-weight:bold;font-stretch:normal;font-size:10.5833px;line-height:1.25;font-family:Aharoni;-inkscape-font-specification:'Aharoni, Bold';font-variant-ligatures:normal;font-variant-caps:normal;font-variant-numeric:normal;font-variant-east-asian:normal;letter-spacing:0px;word-spacing:0px;fill:#4d4d4d;fill-opacity:1;stroke:none;stroke-width:0.400376"
             id="path971" />
          <path
             d="m 212.4603,186.55649 h -2.77604 v -4.44168 h -4.00375 v 4.44168 h -2.77605 v -10.67408 h 2.77605 v 4.12105 h 4.00375 v -4.12105 h 2.77604 z"
             style="font-style:normal;font-variant:normal;font-weight:bold;font-stretch:normal;font-size:10.5833px;line-height:1.25;font-family:Aharoni;-inkscape-font-specification:'Aharoni, Bold';font-variant-ligatures:normal;font-variant-caps:normal;font-variant-numeric:normal;font-variant-east-asian:normal;letter-spacing:0px;word-spacing:0px;fill:#4d4d4d;fill-opacity:1;stroke:none;stroke-width:0.400376"
             id="path973" />
          <path
             d="m 235.35581,179.40133 q 0,1.44667 -0.68034,2.39287 -0.88364,1.22772 -2.93244,1.22772 h -1.736 v 3.53457 h -2.77605 v -10.67408 h 4.41821 q 1.88459,0 2.86206,1.10259 0.84456,0.94619 0.84456,2.41633 z m -2.88553,0.0313 q 0,-0.59431 -0.3519,-0.9462 -0.34408,-0.35971 -1.18079,-0.35971 h -0.93057 v 2.65092 h 0.92274 q 0.89929,0 1.23553,-0.39099 0.30498,-0.35189 0.30499,-0.95402 z"
             style="font-style:normal;font-variant:normal;font-weight:bold;font-stretch:normal;font-size:10.5833px;line-height:1.25;font-family:Aharoni;-inkscape-font-specification:'Aharoni, Bold';font-variant-ligatures:normal;font-variant-caps:normal;font-variant-numeric:normal;font-variant-east-asian:normal;letter-spacing:0px;word-spacing:0px;fill:#4d4d4d;fill-opacity:1;stroke:none;stroke-width:0.400376"
             id="path975" />
          <path
             d="m 248.4164,175.88241 -3.99594,5.54425 v 5.12983 h -2.77603 v -5.12983 l -3.863,-5.54425 h 3.31561 l 2.01751,2.90897 1.93933,-2.90897 z"
             style="font-style:normal;font-variant:normal;font-weight:bold;font-stretch:normal;font-size:10.5833px;line-height:1.25;font-family:Aharoni;-inkscape-font-specification:'Aharoni, Bold';font-variant-ligatures:normal;font-variant-caps:normal;font-variant-numeric:normal;font-variant-east-asian:normal;letter-spacing:0px;word-spacing:0px;fill:#4d4d4d;fill-opacity:1;stroke:none;stroke-width:0.400376"
             id="path977" />
          <g
             id="g989"
             transform="matrix(0.39046951,0,0,0.39046951,116.35014,56.72539)">
            <path
               style="fill:#ffffff;stroke:none;stroke-width:0.264583px;stroke-linecap:butt;stroke-linejoin:miter;stroke-opacity:1"
               d="m 264.13775,302.5 -12.99038,7.49998 v 15.00003 l 12.99038,7.49998 12.99038,-7.49998 v -15.00003 z"
               id="path979" />
            <path
               style="fill:#c2a98a;fill-opacity:1;stroke:none;stroke-width:0.264583px;stroke-linecap:butt;stroke-linejoin:miter;stroke-opacity:1"
               d="m 251.14737,310 c 6.1786,3.56503 9.08334,4.72905 12.12435,8 l 0.86603,14.5 -12.99038,-7.5 z"
               id="path981"
               sodipodi:nodetypes="ccccc" />
            <path
               style="fill:#c2a98a;fill-opacity:1;stroke:none;stroke-width:0.264583px;stroke-linecap:butt;stroke-linejoin:miter;stroke-opacity:1"
               d="m 265.00377,318 c 3.22115,-3.99586 8.06761,-5.3581 12.12434,-8.00001 l 2e-5,15.00001 -12.99038,7.5 z"
               id="path983"
               sodipodi:nodetypes="ccccc" />
            <path
               style="fill:#f6dcbd;fill-opacity:1;stroke:none;stroke-width:0.264583px;stroke-linecap:butt;stroke-linejoin:miter;stroke-opacity:1"
               d="M 277.12811,309.99999 264.13775,302.5 251.14737,310 c 5.72315,2.95354 5.48587,1.90275 12.99038,6.5 3.1262,-2.14301 8.5505,-4.33118 12.99036,-6.50001 z"
               id="path985"
               sodipodi:nodetypes="ccccc" />
            <path
               id="path987"
               style="fill:#d8b384;fill-opacity:1;stroke:none;stroke-width:0.264583px;stroke-linecap:butt;stroke-linejoin:miter;stroke-opacity:1"
               d="m 259.8078,304.99977 -4.33048,2.5001 12.12431,7.0001 0.004,-0.002 c 1.47027,-0.7516 3.09531,-1.50638 4.73718,-2.26136 z" />
          </g>
          <g
             id="g1001"
             transform="matrix(0.40147703,0,0,0.40147703,148.85917,53.06538)">
            <path
               style="fill:#ffffff;stroke:none;stroke-width:0.264583px;stroke-linecap:butt;stroke-linejoin:miter;stroke-opacity:1"
               d="m 264.13775,302.5 -12.99038,7.49998 v 15.00003 l 12.99038,7.49998 12.99038,-7.49998 v -15.00003 z"
               id="path991" />
            <path
               style="fill:#c2a98a;fill-opacity:1;stroke:none;stroke-width:0.264583px;stroke-linecap:butt;stroke-linejoin:miter;stroke-opacity:1"
               d="m 251.14737,310 c 6.1786,3.56503 9.08334,4.72905 12.12435,8 l 0.86603,14.5 -12.99038,-7.5 z"
               id="path993"
               sodipodi:nodetypes="ccccc" />
            <path
               style="fill:#c2a98a;fill-opacity:1;stroke:none;stroke-width:0.264583px;stroke-linecap:butt;stroke-linejoin:miter;stroke-opacity:1"
               d="m 265.00377,318 c 3.22115,-3.99586 8.06761,-5.3581 12.12434,-8.00001 l 2e-5,15.00001 -12.99038,7.5 z"
               id="path995"
               sodipodi:nodetypes="ccccc" />
            <path
               style="fill:#f6dcbd;fill-opacity:1;stroke:none;stroke-width:0.264583px;stroke-linecap:butt;stroke-linejoin:miter;stroke-opacity:1"
               d="M 277.12811,309.99999 264.13775,302.5 251.14737,310 c 5.72315,2.95354 5.48587,1.90275 12.99038,6.5 3.1262,-2.14301 8.5505,-4.33118 12.99036,-6.50001 z"
               id="path997"
               sodipodi:nodetypes="ccccc" />
            <path
               id="path999"
               style="fill:#d8b384;fill-opacity:1;stroke:none;stroke-width:0.264583px;stroke-linecap:butt;stroke-linejoin:miter;stroke-opacity:1"
               d="m 259.8078,304.99977 -4.33048,2.5001 12.12431,7.0001 0.004,-0.002 c 1.47027,-0.7516 3.09531,-1.50638 4.73718,-2.26136 z" />
          </g>
        </g>
      </g>
      <path
         id="path1003"
         style="fill:#d5ab77;fill-opacity:1;stroke:none;stroke-width:0.531865;stroke-linecap:round;stroke-linejoin:round;stroke-miterlimit:4;stroke-dasharray:none;stroke-dashoffset:0;stroke-opacity:1;paint-order:stroke fill markers"
         d="m 188.17528,147.83132 v 2.93244 h 84.87134 v 25.04469 h -84.87134 v 2.93165 h 87.7639 v -2.73381 h 0.0401 v -25.90488 h -0.0401 v -2.27009 z m 0,3.02629 v 24.8789 h 2.93246 v -24.8789 z" />
      <path
         id="path1005"
         style="fill:#4d4d4d;fill-opacity:1;stroke:none;stroke-width:0.531865;stroke-linecap:round;stroke-linejoin:round;stroke-miterlimit:4;stroke-dasharray:none;stroke-dashoffset:0;stroke-opacity:1;paint-order:stroke fill markers"
         d="m 275.97922,147.83132 v 2.93244 H 191.1079 v 25.04469 h 84.87132 v 2.93165 h -87.76389 v -2.73381 h -0.04 v -25.90488 h 0.04 v -2.27009 z m 0,3.02629 v 24.8789 h -2.93246 v -24.8789 z" />
    </g>
  </g>
</svg>
